<?xml version="1.0" encoding="UTF-8"?>
<svg width="24px" height="24px" viewBox="0 0 24 24" version="1.1" xmlns="http://www.w3.org/2000/svg" xmlns:xlink="http://www.w3.org/1999/xlink">
    <title>Icon / apple</title>
    <g id="Icon-/-apple" stroke="none" stroke-width="1" fill="none" fill-rule="evenodd">
        <path d="M16.141563,0.555293801 C16.141563,1.0928182 16.0166166,1.69253551 15.7672063,2.35345853 C15.5086299,3.01438155 15.1077401,3.62248996 14.5650193,4.17778376 C14.0999678,4.65410244 13.6349164,4.97099011 13.1698649,5.12992753 C12.8509863,5.22667205 12.4028195,5.30169841 11.8258469,5.35451302 C11.8514151,4.04105809 12.1876608,2.90875233 12.8336192,1.95660856 C13.4713765,1.01384308 14.5476522,0.361311166 16.0643761,0 C16.0725772,0.0266541024 16.0836728,0.0750263624 16.0962157,0.14511678 C16.1097234,0.216194386 16.1198542,0.264566646 16.1290202,0.290727154 C16.1290202,0.326265958 16.1502466,0.370195867 16.1931818,0.423010478 C16.2361171,0.475825088 16.2578259,0.520248592 16.2578259,0.555293801 L16.141563,0.555293801 Z M21,16.0640327 C20.6642367,17.165242 20.1345412,18.2674385 19.4109134,19.3691414 C18.2999035,21.0967221 17.192753,21.9605124 16.0899443,21.9605124 C15.667828,21.9605124 15.0648049,21.8193444 14.2808748,21.537502 C13.5398799,21.2556595 12.8895798,21.1139979 12.3299743,21.1139979 C11.8041381,21.1139979 11.1924314,21.2596083 10.4948542,21.550829 C9.7967946,21.8504409 9.22850557,22 8.7890223,22 C7.47973842,22 6.18299743,20.8588095 4.89976415,18.575935 C3.63341552,16.2757847 3,14.0585583 3,11.9257365 C3,9.9158197 3.48676029,8.2677077 4.46028087,6.98090687 C5.42511792,5.71138184 6.6485313,5.07711292 8.13003859,5.07711292 C8.75042882,5.07711292 9.51265009,5.20939624 10.4171848,5.4734693 C11.313036,5.73803594 11.9073756,5.87031927 12.2002037,5.87031927 C12.5880682,5.87031927 13.2041166,5.72026654 14.0483491,5.42065469 C14.9268332,5.12104283 15.6721698,4.97099011 16.2838765,4.97099011 C17.3090159,4.97099011 18.2260935,5.2577685 19.0360742,5.83083171 C19.484241,6.14821296 19.9319254,6.58849925 20.3800922,7.15267775 C19.6993997,7.74351035 19.2082976,8.26326535 18.906786,8.71292993 C18.3466981,9.54167508 18.0668954,10.4538377 18.0668954,11.4494178 C18.0668954,12.5427296 18.3640652,13.5249826 18.9588872,14.3981513 C19.5527444,15.2703327 20.233437,15.8256265 21,16.0640327 L21,16.0640327 Z" id="Fill-1备份" fill="#333438"></path>
    </g>
</svg>