<?xml version="1.0" encoding="UTF-8"?>
<svg width="24px" height="24px" viewBox="0 0 24 24" version="1.1" xmlns="http://www.w3.org/2000/svg" xmlns:xlink="http://www.w3.org/1999/xlink">
    <title>Icon / google</title>
    <g id="Icon-/-google" stroke="none" stroke-width="1" fill="none" fill-rule="evenodd">
        <g id="编组" transform="translate(2.000000, 2.000000)">
            <path d="M4.09000922,9.77758333 C4.09000922,9.14258333 4.19834256,8.53341667 4.39000922,7.96258333 L1.02500922,5.44591667 C0.348759224,6.78966667 -0.0020741089,8.27341667 8.61533067e-14,9.77758333 C8.61533067e-14,11.33425 0.368342558,12.8025833 1.02334256,14.1059167 L4.38667589,11.5850833 C4.19042589,11.0025833 4.09042589,10.3921667 4.09000922,9.77758333" id="Fill-1" fill="#FBBC05"></path>
            <path d="M9.99984256,4 C11.4081759,4 12.6810926,4.48833333 13.6806759,5.28833333 L16.5898426,2.44416667 C14.8177592,0.933333333 12.5448426,2.66453526e-15 9.99984256,2.66453526e-15 C6.04817589,2.66453526e-15 2.65150922,2.2125 1.02484256,5.44583333 L4.39150922,7.9625 C5.16650922,5.6575 7.37650922,4 9.99984256,4" id="Fill-3" fill="#EA4335"></path>
            <path d="M9.99984256,15.5551667 C7.37567589,15.5551667 5.16567589,13.89725 4.38984256,11.5926667 L1.02484256,14.1093333 C2.65067589,17.3426667 6.04734256,19.5551667 9.99984256,19.5551667 C12.4385926,19.5551667 14.7665092,18.70725 16.5152592,17.1185 L13.3202592,14.7001667 C12.4194259,15.256 11.2840092,15.5551667 9.99900922,15.5551667" id="Fill-5" fill="#34A853"></path>
            <path d="M19.5449259,9.77758333 C19.5449259,9.20008333 19.4532592,8.57758333 19.3174259,8.00008333 L9.99909256,8.00008333 L9.99909256,11.7775833 L15.3624259,11.7775833 C15.0949259,13.0659167 14.3649259,14.0559167 13.3207592,14.7000833 L16.5153426,17.1184167 C18.3507592,15.4500833 19.5449259,12.9650833 19.5449259,9.77758333" id="Fill-7" fill="#4285F4"></path>
        </g>
    </g>
</svg>